<svg width="165" height="35" viewBox="0 0 165 35" fill="none" xmlns="http://www.w3.org/2000/svg">
<path d="M15.5939 25.5089C21.9643 20.4916 23.8008 14.9495 21.6273 13.258C37.8511 10.5711 29.9823 27.6718 15.5939 25.5089Z" fill="url(#paint0_linear_14_76)"/>
<path d="M19.4367 9.20918C13.1374 14.3155 11.379 19.8829 13.5761 21.5437C-2.60836 24.4585 5.01927 7.24877 19.4367 9.20918Z" fill="url(#paint1_linear_14_76)"/>
<path d="M4.03146 19.5112C-4.15032 12.7466 13.7638 4.94108 22.6648 5.31005C31.5658 5.67902 1.0102 15.392 6.15254 20.975C5.50711 20.5687 4.80794 20.0884 4.03146 19.5112Z" fill="url(#paint2_linear_14_76)"/>
<path d="M31.1424 15.4244C39.2282 22.3034 21.2061 29.8562 12.3112 29.3621C3.41629 28.868 34.1054 19.5857 29.0421 13.9309C29.6817 14.3463 30.3741 14.8364 31.1424 15.4244Z" fill="url(#paint3_linear_14_76)"/>
<path d="M50.3885 20.1158H53.869C53.8117 21.19 53.518 22.1389 52.9881 22.9625C52.4653 23.7789 51.7384 24.4198 50.8074 24.8853C49.8764 25.3436 48.77 25.5728 47.4881 25.5728C46.464 25.5728 45.5473 25.3974 44.7381 25.0464C43.9289 24.6955 43.2414 24.1942 42.6756 23.5425C42.117 22.8837 41.6873 22.0923 41.3865 21.1685C41.0929 20.2375 40.9461 19.1884 40.9461 18.0211V17.065C40.9461 15.8977 41.1001 14.8485 41.408 13.9175C41.716 12.9866 42.1564 12.1916 42.7293 11.5328C43.3022 10.8739 43.9897 10.369 44.7918 10.0181C45.5939 9.66722 46.4891 9.49176 47.4774 9.49176C48.8094 9.49176 49.9337 9.73167 50.8504 10.2115C51.7671 10.6913 52.4761 11.3502 52.9774 12.188C53.4858 13.0259 53.7902 13.982 53.8904 15.0562H50.3992C50.3706 14.4475 50.256 13.9354 50.0555 13.5201C49.855 13.0976 49.547 12.7789 49.1317 12.564C48.7163 12.3492 48.1649 12.2418 47.4774 12.2418C46.9761 12.2418 46.5356 12.3349 46.1561 12.5211C45.7837 12.7073 45.4721 12.9973 45.2215 13.3912C44.978 13.7851 44.7954 14.2864 44.6736 14.8951C44.5519 15.4966 44.491 16.2128 44.491 17.0435V18.0211C44.491 18.8446 44.5447 19.5572 44.6522 20.1588C44.7596 20.7603 44.9315 21.258 45.1678 21.6519C45.4113 22.0458 45.7228 22.3394 46.1024 22.5328C46.4819 22.7261 46.9438 22.8228 47.4881 22.8228C48.1111 22.8228 48.6304 22.7261 49.0457 22.5328C49.4611 22.3323 49.7798 22.0315 50.0018 21.6304C50.2238 21.2294 50.3527 20.7245 50.3885 20.1158ZM68.8543 17.1939V17.8922C68.8543 19.081 68.6896 20.148 68.3602 21.0933C68.0379 22.0386 67.576 22.8443 66.9744 23.5103C66.38 24.1763 65.671 24.6884 64.8475 25.0464C64.0311 25.3974 63.1251 25.5728 62.1297 25.5728C61.1343 25.5728 60.2248 25.3974 59.4012 25.0464C58.5776 24.6884 57.8615 24.1763 57.2527 23.5103C56.6512 22.8443 56.1857 22.0386 55.8563 21.0933C55.5268 20.148 55.3621 19.081 55.3621 17.8922V17.1939C55.3621 16.0051 55.5268 14.938 55.8563 13.9927C56.1857 13.0403 56.6476 12.231 57.242 11.565C57.8436 10.899 58.5561 10.3905 59.3797 10.0396C60.2033 9.68154 61.1128 9.5025 62.1082 9.5025C63.1037 9.5025 64.0132 9.68154 64.8367 10.0396C65.6603 10.3905 66.3693 10.899 66.9637 11.565C67.5652 12.231 68.0307 13.0403 68.3602 13.9927C68.6896 14.938 68.8543 16.0051 68.8543 17.1939ZM65.3201 17.8922V17.1724C65.3201 16.3775 65.2485 15.6757 65.1053 15.067C64.9621 14.4511 64.7544 13.9354 64.4822 13.5201C64.2101 13.1047 63.8735 12.7932 63.4725 12.5855C63.0714 12.3707 62.6167 12.2632 62.1082 12.2632C61.5783 12.2632 61.1164 12.3707 60.7225 12.5855C60.3286 12.7932 59.9956 13.1047 59.7234 13.5201C59.4585 13.9354 59.2544 14.4511 59.1111 15.067C58.9751 15.6757 58.907 16.3775 58.907 17.1724V17.8922C58.907 18.6799 58.9751 19.3817 59.1111 19.9976C59.2544 20.6063 59.4621 21.122 59.7342 21.5445C60.0063 21.967 60.3393 22.2857 60.7332 22.5005C61.1343 22.7154 61.5998 22.8228 62.1297 22.8228C62.6382 22.8228 63.0893 22.7154 63.4832 22.5005C63.8843 22.2857 64.2208 21.967 64.493 21.5445C64.7651 21.122 64.9692 20.6063 65.1053 19.9976C65.2485 19.3817 65.3201 18.6799 65.3201 17.8922ZM75.9549 25.358H72.5174L72.5389 22.6509H75.9549C76.7355 22.6509 77.3943 22.4719 77.9315 22.1138C78.4686 21.7486 78.8768 21.2115 79.1561 20.5025C79.4354 19.7864 79.575 18.9162 79.575 17.8922V17.1724C79.575 16.399 79.4962 15.7186 79.3387 15.1314C79.1811 14.537 78.9484 14.0393 78.6404 13.6382C78.3325 13.2372 77.9494 12.9364 77.491 12.7359C77.0399 12.5354 76.5207 12.4351 75.9334 12.4351H72.4529V9.71735H75.9334C76.9933 9.71735 77.9601 9.89638 78.8338 10.2545C79.7147 10.6125 80.4738 11.1246 81.1111 11.7906C81.7557 12.4566 82.2534 13.2444 82.6043 14.1539C82.9552 15.0634 83.1307 16.0767 83.1307 17.1939V17.8922C83.1307 19.0022 82.9552 20.0155 82.6043 20.9322C82.2534 21.8417 81.7557 22.6295 81.1111 23.2955C80.4738 23.9543 79.7182 24.4628 78.8445 24.8209C77.9708 25.1789 77.0076 25.358 75.9549 25.358ZM74.5047 9.71735V25.358H71.0027V9.71735H74.5047ZM95.9031 22.6509V25.358H87.5779V22.6509H95.9031ZM88.7703 9.71735V25.358H85.2684V9.71735H88.7703ZM94.8289 16.0123V18.6334H87.5779V16.0123H94.8289ZM95.9139 9.71735V12.4351H87.5779V9.71735H95.9139Z" fill="#4DE982"/>
<path d="M105.732 21.233C105.732 20.968 105.693 20.7317 105.614 20.524C105.535 20.3091 105.392 20.1122 105.184 19.9332C104.977 19.7541 104.683 19.5751 104.304 19.3961C103.924 19.2099 103.426 19.0201 102.81 18.8267C102.109 18.5976 101.439 18.3397 100.802 18.0533C100.171 17.7597 99.6092 17.4195 99.1151 17.0328C98.6209 16.6461 98.2306 16.1949 97.9442 15.6793C97.6649 15.1636 97.5252 14.5621 97.5252 13.8746C97.5252 13.2086 97.672 12.607 97.9656 12.0699C98.2593 11.5328 98.671 11.0744 99.201 10.6949C99.7309 10.3082 100.354 10.0145 101.07 9.81403C101.786 9.60634 102.574 9.5025 103.433 9.5025C104.579 9.5025 105.585 9.7066 106.452 10.1148C107.326 10.5158 108.006 11.0816 108.493 11.8121C108.98 12.5354 109.223 13.3769 109.223 14.3365H105.743C105.743 13.914 105.653 13.5416 105.474 13.2193C105.303 12.8899 105.038 12.6321 104.68 12.4459C104.329 12.2597 103.888 12.1666 103.358 12.1666C102.843 12.1666 102.409 12.2453 102.058 12.4029C101.715 12.5533 101.453 12.761 101.274 13.0259C101.102 13.2909 101.016 13.581 101.016 13.8961C101.016 14.1467 101.081 14.3759 101.21 14.5836C101.346 14.7841 101.539 14.9739 101.79 15.1529C102.048 15.3248 102.363 15.4895 102.735 15.647C103.108 15.8046 103.534 15.955 104.013 16.0982C104.851 16.3632 105.593 16.6568 106.237 16.9791C106.889 17.3013 107.437 17.6666 107.881 18.0748C108.325 18.483 108.658 18.9449 108.88 19.4605C109.109 19.9761 109.223 20.5598 109.223 21.2115C109.223 21.9061 109.087 22.522 108.815 23.0591C108.55 23.5963 108.164 24.0546 107.655 24.4341C107.154 24.8065 106.552 25.0894 105.85 25.2828C105.149 25.4761 104.364 25.5728 103.498 25.5728C102.71 25.5728 101.933 25.4726 101.167 25.272C100.401 25.0644 99.7059 24.7492 99.0828 24.3267C98.4669 23.9042 97.9728 23.3671 97.6004 22.7154C97.2352 22.0565 97.0526 21.2759 97.0526 20.3736H100.555C100.555 20.8463 100.623 21.2473 100.759 21.5767C100.895 21.899 101.088 22.1604 101.339 22.3609C101.596 22.5614 101.908 22.7047 102.273 22.7906C102.638 22.8765 103.047 22.9195 103.498 22.9195C104.021 22.9195 104.443 22.8479 104.765 22.7047C105.095 22.5543 105.338 22.3502 105.496 22.0923C105.653 21.8345 105.732 21.5481 105.732 21.233ZM117.452 19.9224H113.52V17.2047H117.452C118.032 17.2047 118.498 17.108 118.848 16.9146C119.207 16.7213 119.468 16.4563 119.633 16.1197C119.805 15.7759 119.89 15.3892 119.89 14.9595C119.89 14.5155 119.805 14.1037 119.633 13.7242C119.468 13.3375 119.207 13.0259 118.848 12.7896C118.498 12.5533 118.032 12.4351 117.452 12.4351H114.788V25.358H111.286V9.71735H117.452C118.698 9.71735 119.765 9.94293 120.653 10.3941C121.548 10.8453 122.232 11.4647 122.705 12.2525C123.185 13.0331 123.425 13.9283 123.425 14.938C123.425 15.9478 123.185 16.8251 122.705 17.5699C122.232 18.3147 121.548 18.8948 120.653 19.3101C119.765 19.7183 118.698 19.9224 117.452 19.9224ZM130.203 12.6929L126.164 25.358H122.426L128.216 9.71735H130.579L130.203 12.6929ZM133.555 25.358L129.505 12.6929L129.086 9.71735H131.481L137.293 25.358H133.555ZM133.383 19.5357V22.2427H125.229V19.5357H133.383ZM147.369 20.1158H150.849C150.792 21.19 150.499 22.1389 149.969 22.9625C149.446 23.7789 148.719 24.4198 147.788 24.8853C146.857 25.3436 145.75 25.5728 144.469 25.5728C143.444 25.5728 142.528 25.3974 141.719 25.0464C140.909 24.6955 140.222 24.1942 139.656 23.5425C139.097 22.8837 138.668 22.0923 138.367 21.1685C138.073 20.2375 137.927 19.1884 137.927 18.0211V17.065C137.927 15.8977 138.081 14.8485 138.388 13.9175C138.696 12.9866 139.137 12.1916 139.71 11.5328C140.283 10.8739 140.97 10.369 141.772 10.0181C142.574 9.66722 143.47 9.49176 144.458 9.49176C145.79 9.49176 146.914 9.73167 147.831 10.2115C148.748 10.6913 149.457 11.3502 149.958 12.188C150.466 13.0259 150.771 13.982 150.871 15.0562H147.38C147.351 14.4475 147.236 13.9354 147.036 13.5201C146.835 13.0976 146.527 12.7789 146.112 12.564C145.697 12.3492 145.145 12.2418 144.458 12.2418C143.957 12.2418 143.516 12.3349 143.137 12.5211C142.764 12.7073 142.453 12.9973 142.202 13.3912C141.958 13.7851 141.776 14.2864 141.654 14.8951C141.532 15.4966 141.471 16.2128 141.471 17.0435V18.0211C141.471 18.8446 141.525 19.5572 141.633 20.1588C141.74 20.7603 141.912 21.258 142.148 21.6519C142.392 22.0458 142.703 22.3394 143.083 22.5328C143.462 22.7261 143.924 22.8228 144.469 22.8228C145.092 22.8228 145.611 22.7261 146.026 22.5328C146.442 22.3323 146.76 22.0315 146.982 21.6304C147.204 21.2294 147.333 20.7245 147.369 20.1158ZM163.429 22.6509V25.358H155.103V22.6509H163.429ZM156.296 9.71735V25.358H152.794V9.71735H156.296ZM162.354 16.0123V18.6334H155.103V16.0123H162.354ZM163.439 9.71735V12.4351H155.103V9.71735H163.439Z" fill="#795BD0"/>
<defs>
<linearGradient id="paint0_linear_14_76" x1="24.0945" y1="29.3789" x2="26.1111" y2="10.9972" gradientUnits="userSpaceOnUse">
<stop stop-color="#68CCCC"/>
<stop offset="1" stop-color="#795BD0"/>
</linearGradient>
<linearGradient id="paint1_linear_14_76" x1="10.8824" y1="5.45908" x2="9.12455" y2="23.8673" gradientUnits="userSpaceOnUse">
<stop stop-color="#68CCCC"/>
<stop offset="1" stop-color="#795BD0"/>
</linearGradient>
<linearGradient id="paint2_linear_14_76" x1="12.5577" y1="-0.279168" x2="8.30465" y2="22.6198" gradientUnits="userSpaceOnUse">
<stop stop-color="#C9ECCA"/>
<stop offset="1" stop-color="#67EA94"/>
</linearGradient>
<linearGradient id="paint3_linear_14_76" x1="22.3387" y1="35.0929" x2="26.9133" y2="12.256" gradientUnits="userSpaceOnUse">
<stop stop-color="#C9ECCA"/>
<stop offset="1" stop-color="#67EA94"/>
</linearGradient>
</defs>
</svg>
