<svg width="24" height="24" viewBox="0 0 24 24" fill="none" xmlns="http://www.w3.org/2000/svg">
<path d="M18.47 16.83L18.86 19.99C18.96 20.82 18.07 21.4 17.36 20.97L13.9 18.91C13.66 18.77 13.6 18.47 13.73 18.23C14.23 17.31 14.5 16.27 14.5 15.23C14.5 11.57 11.36 8.59 7.50001 8.59C6.71001 8.59 5.94001 8.71 5.22001 8.95C5.13488 8.97626 5.04432 8.97953 4.95752 8.95948C4.87072 8.93943 4.79076 8.89678 4.72577 8.83585C4.66078 8.77492 4.61306 8.69788 4.58746 8.61255C4.56186 8.52723 4.55929 8.43664 4.58001 8.35C5.49001 4.71 8.99001 2 13.17 2C18.05 2 22 5.69 22 10.24C22 12.94 20.61 15.33 18.47 16.83Z" fill="#795BD0"/>
<path d="M13 15.23C13 16.42 12.56 17.52 11.82 18.39C10.83 19.59 9.26 20.36 7.5 20.36L4.89 21.91C4.45 22.18 3.89 21.81 3.95 21.3L4.2 19.33C2.86 18.4 2 16.91 2 15.23C2 13.47 2.94 11.92 4.38 11C5.27 10.42 6.34 10.09 7.5 10.09C10.54 10.09 13 12.39 13 15.23Z" fill="#795BD0"/>
</svg>
