<svg width="24" height="24" viewBox="0 0 24 24" fill="none" xmlns="http://www.w3.org/2000/svg">
<path d="M16.51 5.01L14.55 3.05C13.15 1.65 10.85 1.65 9.45 3.05L7.49 5.01C7.1 5.4 7.1 6.04 7.49 6.43L11.3 10.24C11.69 10.63 12.32 10.63 12.71 10.24L16.52 6.43C16.9 6.04 16.9 5.4 16.51 5.01ZM5.01 7.492L3.05 9.452C1.65 10.852 1.65 13.152 3.05 14.552L5.01 16.512C5.4 16.902 6.03 16.902 6.42 16.512L10.23 12.702C10.3227 12.6095 10.3963 12.4996 10.4464 12.3786C10.4966 12.2577 10.5224 12.128 10.5224 11.997C10.5224 11.866 10.4966 11.7363 10.4464 11.6154C10.3963 11.4944 10.3227 11.3845 10.23 11.292L6.43 7.492C6.04 7.102 5.4 7.102 5.01 7.492ZM20.95 9.452L18.99 7.492C18.8975 7.3993 18.7876 7.32575 18.6666 7.27557C18.5457 7.22539 18.416 7.19956 18.285 7.19956C18.154 7.19956 18.0243 7.22539 17.9034 7.27557C17.7824 7.32575 17.6725 7.3993 17.58 7.492L13.77 11.302C13.6773 11.3945 13.6037 11.5044 13.5536 11.6254C13.5034 11.7463 13.4776 11.876 13.4776 12.007C13.4776 12.138 13.5034 12.2677 13.5536 12.3886C13.6037 12.5096 13.6773 12.6195 13.77 12.712L17.58 16.522C17.97 16.912 18.6 16.912 18.99 16.522L20.95 14.562C22.35 13.152 22.35 10.852 20.95 9.452ZM7.49 18.99L9.45 20.95C10.85 22.35 13.15 22.35 14.55 20.95L16.51 18.99C16.6027 18.8975 16.6763 18.7876 16.7264 18.6666C16.7766 18.5457 16.8024 18.416 16.8024 18.285C16.8024 18.154 16.7766 18.0243 16.7264 17.9034C16.6763 17.7824 16.6027 17.6725 16.51 17.58L12.7 13.77C12.6075 13.6773 12.4976 13.6037 12.3766 13.5536C12.2557 13.5034 12.126 13.4776 11.995 13.4776C11.864 13.4776 11.7343 13.5034 11.6134 13.5536C11.4924 13.6037 11.3825 13.6773 11.29 13.77L7.48 17.58C7.1 17.96 7.1 18.6 7.49 18.99Z" fill="#795BD0"/>
</svg>
